<svg width="96" height="96" viewBox="0 0 96 96" fill="none" xmlns="http://www.w3.org/2000/svg">
<path d="M48.11 7.60999C26.0541 7.60999 8.10999 25.5541 8.10999 47.61C8.10999 69.6658 26.0541 87.61 48.11 87.61C70.1659 87.61 88.11 69.6658 88.11 47.61C88.11 25.5541 70.1659 7.60999 48.11 7.60999ZM48.11 13.61C66.9232 13.61 82.11 28.7968 82.11 47.61C82.11 62.9407 72.0239 75.855 58.11 80.1139V69.8834C58.11 66.0633 55.9086 62.7872 52.7272 61.1569C55.8206 60.565 58.6929 59.3916 61.1059 57.7338C63.5188 56.076 65.4027 53.9817 66.6012 51.6247C67.7997 49.2678 68.2783 46.7162 67.9972 44.1816C67.7161 41.6471 66.6835 39.2027 64.985 37.0514C65.8721 34.3208 66.863 29.5313 64.5084 25.7623C59.9687 25.7623 57.0393 28.8742 55.6412 30.8092C53.2512 30.024 50.6937 29.6168 48.11 29.61C45.5246 29.6123 42.9644 30.0156 40.5709 30.7975C39.1694 28.8615 36.2424 25.7623 31.7115 25.7623C29.0094 30.0876 30.6798 34.7391 31.5748 36.6373C29.7615 38.7794 28.6245 41.2412 28.2612 43.8119C27.898 46.3825 28.3193 48.9853 29.4891 51.3972C30.6589 53.809 32.5423 55.9579 34.9779 57.6598C37.4135 59.3616 40.3285 60.5656 43.4733 61.1686C40.861 62.515 38.9046 64.9581 38.3053 67.9225H35.6764C33.0824 67.9225 32.0745 66.8685 30.6725 65.0905C29.2885 63.3125 27.8003 62.1177 26.0123 61.6217C25.0483 61.5197 24.3989 62.253 25.2389 62.903C28.0769 64.835 28.2728 67.997 29.4108 70.067C30.4468 71.931 32.5694 73.61 34.9694 73.61H38.11V80.1139C24.1961 75.855 14.11 62.9407 14.11 47.61C14.11 28.7968 29.2968 13.61 48.11 13.61Z" fill="black"/>
</svg>
