<svg width="96" height="96" viewBox="0 0 96 96" fill="none" xmlns="http://www.w3.org/2000/svg">
<path d="M23.11 11.61C17.0704 11.61 12.11 16.5704 12.11 22.61V72.61C12.11 78.6495 17.0704 83.61 23.11 83.61H73.11C79.1495 83.61 84.11 78.6495 84.11 72.61V22.61C84.11 16.5704 79.1495 11.61 73.11 11.61H23.11ZM23.11 17.61H73.11C75.9064 17.61 78.11 19.8135 78.11 22.61V72.61C78.11 75.4064 75.9064 77.61 73.11 77.61H23.11C20.3135 77.61 18.11 75.4064 18.11 72.61V22.61C18.11 19.8135 20.3135 17.61 23.11 17.61ZM31.11 25.61C29.7839 25.61 28.5121 26.1368 27.5745 27.0745C26.6368 28.0121 26.11 29.2839 26.11 30.61C26.11 31.9361 26.6368 33.2078 27.5745 34.1455C28.5121 35.0832 29.7839 35.61 31.11 35.61C32.4361 35.61 33.7078 35.0832 34.6455 34.1455C35.5832 33.2078 36.11 31.9361 36.11 30.61C36.11 29.2839 35.5832 28.0121 34.6455 27.0745C33.7078 26.1368 32.4361 25.61 31.11 25.61ZM28.11 39.61C27.004 39.61 26.11 40.504 26.11 41.61V67.61C26.11 68.716 27.004 69.61 28.11 69.61H34.11C35.216 69.61 36.11 68.716 36.11 67.61V41.61C36.11 40.504 35.216 39.61 34.11 39.61H28.11ZM42.11 39.61C41.004 39.61 40.11 40.504 40.11 41.61V67.61C40.11 68.716 41.004 69.61 42.11 69.61H48.11C49.216 69.61 50.11 68.716 50.11 67.61V52.61C50.11 49.852 52.352 47.61 55.11 47.61C57.868 47.61 60.11 49.852 60.11 52.61V67.61C60.11 68.716 61.004 69.61 62.11 69.61H68.11C69.216 69.61 70.11 68.716 70.11 67.61V51.61C70.11 44.992 64.728 39.61 58.11 39.61C55.034 39.61 52.236 40.782 50.11 42.692V41.61C50.11 40.504 49.216 39.61 48.11 39.61H42.11Z" fill="black"/>
</svg>
